<svg enable-background="new 0 0 24 24" height="512" viewBox="0 0 24 24" width="512" xmlns="http://www.w3.org/2000/svg" xmlns:xlink="http://www.w3.org/1999/xlink" width="512" height="512" viewBox="0, 0, 400,210"><g id="svgg"><path id="path0" d="M157.983 34.041 C 143.202 35.542,132.255 45.023,129.733 58.508 C 129.538 59.548,129.303 60.777,129.211 61.239 C 128.898 62.803,128.887 64.338,128.887 105.042 C 128.887 145.950,128.897 147.311,129.219 148.845 C 129.316 149.307,129.550 150.536,129.738 151.576 C 130.303 154.701,132.563 160.468,133.737 161.781 C 133.900 161.964,134.034 162.184,134.034 162.270 C 134.034 163.309,140.691 169.947,142.880 171.090 C 143.156 171.235,143.761 171.592,144.223 171.884 C 146.632 173.407,151.048 174.936,155.153 175.669 L 157.878 176.155 200.105 176.155 L 242.332 176.155 244.836 175.681 C 249.671 174.766,253.820 173.276,256.387 171.534 C 256.813 171.245,257.212 171.008,257.273 171.008 C 257.516 171.008,260.063 168.934,261.529 167.543 C 266.607 162.724,269.336 157.332,270.728 149.370 C 271.323 145.966,271.326 63.823,270.732 60.714 C 270.046 57.131,269.928 56.641,269.287 54.727 C 265.649 43.866,257.389 36.965,244.958 34.401 L 242.752 33.946 201.155 33.913 C 178.277 33.896,158.850 33.953,157.983 34.041 M202.852 51.488 C 225.309 53.716,238.492 77.629,228.294 97.638 C 216.452 120.874,183.264 120.717,171.469 97.369 C 160.329 75.317,178.294 49.052,202.852 51.488 M175.840 137.280 C 175.840 151.935,175.799 152.188,172.915 155.046 C 170.711 157.230,168.135 158.193,164.493 158.193 C 156.910 158.193,152.157 153.759,152.557 147.059 L 152.626 145.903 155.872 145.903 L 159.118 145.903 159.358 147.584 C 159.900 151.375,162.589 153.011,166.235 151.769 C 169.120 150.786,169.197 150.408,169.276 136.817 L 169.342 125.420 172.591 125.420 L 175.840 125.420 175.840 137.280 M209.460 125.683 C 209.464 125.827,209.461 128.380,209.454 131.355 C 209.443 136.077,209.482 136.765,209.763 136.765 C 209.939 136.765,210.084 136.690,210.084 136.599 C 210.084 135.582,214.285 134.034,217.045 134.034 C 229.188 134.034,232.900 151.523,221.941 157.097 C 218.390 158.903,213.329 158.453,210.640 156.091 C 209.627 155.201,209.410 155.270,209.484 156.460 L 209.545 157.458 206.453 157.516 L 203.361 157.574 203.361 141.497 L 203.361 125.420 206.408 125.420 C 208.701 125.420,209.455 125.485,209.460 125.683 M193.305 133.878 C 206.311 138.599,203.545 157.548,189.763 158.147 C 180.008 158.571,173.691 148.711,178.047 139.859 C 180.635 134.602,187.685 131.838,193.305 133.878 M241.857 133.818 C 243.956 134.609,246.849 137.104,246.849 138.123 C 246.849 138.425,242.443 140.966,241.920 140.966 C 241.758 140.966,241.568 140.786,241.498 140.565 C 240.807 138.389,235.731 138.337,235.669 140.505 C 235.636 141.695,236.158 142.013,240.033 143.165 C 246.258 145.015,248.529 148.108,247.149 152.856 C 245.138 159.775,232.227 160.097,228.759 153.316 L 228.360 152.535 230.409 151.346 C 231.536 150.691,232.690 150.011,232.973 149.835 C 233.445 149.541,233.506 149.547,233.708 149.901 C 235.507 153.055,241.176 153.601,241.176 150.620 C 241.176 149.565,240.122 148.985,236.029 147.790 C 231.281 146.403,229.517 144.498,229.517 140.756 C 229.517 135.010,235.738 131.512,241.857 133.818 M187.253 139.574 C 180.647 141.743,181.879 151.714,188.797 152.068 C 195.763 152.425,198.211 143.076,191.984 139.899 C 190.883 139.338,188.477 139.173,187.253 139.574 M213.725 140.095 C 207.011 142.415,208.744 152.374,215.861 152.374 C 219.839 152.374,222.164 150.065,222.164 146.113 C 222.164 141.379,218.197 138.549,213.725 140.095 " stroke="none" fill="#e3047c" fill-rule="evenodd"></path><path id="path1" d="M196.902 51.485 C 174.785 53.624,161.489 77.612,171.469 97.369 C 183.264 120.717,216.452 120.874,228.294 97.638 C 239.647 75.361,221.772 49.081,196.902 51.485 M204.148 62.083 C 204.838 62.877,204.957 63.601,204.528 64.398 C 203.235 66.798,199.725 65.031,200.856 62.549 C 201.431 61.288,203.235 61.033,204.148 62.083 M210.082 68.171 C 211.572 68.942,211.812 70.623,210.594 71.771 C 209.087 73.193,206.863 72.237,206.863 70.168 C 206.863 68.441,208.564 67.386,210.082 68.171 M204.133 68.743 C 205.547 70.158,204.121 72.663,202.179 72.176 C 201.331 71.963,200.630 71.061,200.635 70.190 C 200.646 68.353,202.837 67.447,204.133 68.743 M217.318 74.779 C 219.397 76.149,218.476 79.405,216.008 79.410 C 214.030 79.414,212.841 77.409,213.763 75.625 C 214.386 74.420,216.140 74.002,217.318 74.779 M210.630 75.294 C 212.331 76.995,210.726 79.730,208.445 79.020 C 205.936 78.239,206.563 74.615,209.212 74.587 C 209.738 74.582,210.096 74.760,210.630 75.294 M204.118 75.504 C 204.939 76.325,205.011 76.910,204.411 77.894 C 203.326 79.672,200.630 78.957,200.630 76.891 C 200.630 74.962,202.737 74.124,204.118 75.504 M197.673 75.544 C 198.887 76.565,198.107 78.782,196.534 78.782 C 196.198 78.782,195.732 78.538,195.362 78.167 C 193.698 76.503,195.875 74.031,197.673 75.544 M192.489 75.873 C 192.692 76.112,192.857 76.580,192.857 76.914 C 192.857 78.298,191.006 78.907,190.141 77.808 C 188.906 76.237,191.199 74.347,192.489 75.873 M187.561 76.309 C 188.006 77.243,187.392 78.142,186.304 78.148 C 185.685 78.152,185.084 77.491,185.084 76.808 C 185.084 75.578,187.025 75.187,187.561 76.309 M182.787 76.058 C 183.582 76.483,183.084 77.941,182.143 77.941 C 181.642 77.941,181.092 77.392,181.092 76.891 C 181.092 76.055,181.973 75.622,182.787 76.058 M178.773 76.355 C 179.331 77.028,178.512 78.061,177.784 77.602 C 177.056 77.144,177.315 76.050,178.151 76.050 C 178.354 76.050,178.634 76.188,178.773 76.355 M175.175 76.758 C 175.216 76.971,175.145 77.250,175.018 77.377 C 174.698 77.697,174.057 77.042,174.235 76.576 C 174.408 76.127,175.078 76.256,175.175 76.758 M224.934 81.798 C 226.546 83.556,225.339 86.351,222.972 86.341 C 221.914 86.337,221.235 85.975,220.647 85.102 C 218.787 82.342,222.682 79.339,224.934 81.798 M217.108 81.297 C 218.623 81.873,218.929 84.061,217.672 85.319 C 215.899 87.092,213.218 85.779,213.500 83.276 C 213.700 81.503,215.316 80.616,217.108 81.297 M210.630 82.017 C 212.236 83.623,210.809 86.206,208.554 85.774 C 206.895 85.457,206.305 83.108,207.585 81.912 C 208.541 81.019,209.671 81.058,210.630 82.017 M203.762 81.818 C 205.553 82.744,204.775 85.600,202.732 85.600 C 202.000 85.600,201.743 85.482,201.239 84.918 C 199.612 83.098,201.575 80.686,203.762 81.818 M197.673 82.267 C 199.240 83.585,197.733 85.973,195.836 85.175 C 194.959 84.806,194.617 84.050,194.870 83.036 C 195.201 81.704,196.561 81.331,197.673 82.267 M192.341 82.448 C 193.377 83.484,192.754 85.084,191.314 85.084 C 190.407 85.084,189.832 84.461,189.832 83.478 C 189.832 82.092,191.359 81.466,192.341 82.448 M187.574 83.060 C 188.157 84.283,186.480 85.430,185.517 84.467 C 184.587 83.536,185.198 82.283,186.527 82.394 C 187.125 82.444,187.348 82.586,187.574 83.060 M183.045 83.003 C 183.665 83.994,182.366 85.121,181.504 84.341 C 181.039 83.920,180.991 83.565,181.316 82.957 C 181.587 82.451,182.719 82.481,183.045 83.003 M178.739 83.025 C 179.419 83.704,178.371 84.862,177.632 84.249 C 177.035 83.754,177.380 82.773,178.151 82.773 C 178.336 82.773,178.601 82.887,178.739 83.025 M175.172 83.563 C 175.223 83.917,175.134 84.034,174.817 84.034 C 174.314 84.034,174.075 83.716,174.245 83.273 C 174.425 82.804,175.094 83.014,175.172 83.563 M216.893 87.926 C 218.539 88.614,218.994 90.610,217.793 91.882 C 216.599 93.149,215.379 93.153,214.121 91.894 C 212.233 90.006,214.410 86.888,216.893 87.926 M210.693 88.768 C 212.047 90.310,211.130 92.421,209.102 92.432 C 208.066 92.438,207.042 91.704,206.877 90.838 C 206.429 88.493,209.153 87.015,210.693 88.768 M204.057 88.743 C 204.808 89.438,204.967 90.215,204.543 91.105 C 203.848 92.562,202.062 92.730,201.043 91.435 C 199.566 89.557,202.300 87.114,204.057 88.743 M197.918 89.098 C 198.892 90.221,198.040 92.017,196.534 92.017 C 195.153 92.017,194.421 90.803,194.955 89.399 C 195.346 88.369,197.129 88.188,197.918 89.098 M192.371 89.112 C 193.394 90.074,192.709 91.807,191.306 91.807 C 190.404 91.807,189.832 91.180,189.832 90.194 C 189.832 88.819,191.365 88.167,192.371 89.112 M187.320 89.361 C 188.087 90.127,187.452 91.597,186.354 91.597 C 185.475 91.597,184.760 90.299,185.245 89.583 C 185.705 88.903,186.750 88.791,187.320 89.361 M183.158 90.115 C 183.238 90.657,182.657 91.387,182.143 91.387 C 181.554 91.387,181.024 90.636,181.179 90.020 C 181.451 88.937,182.993 89.011,183.158 90.115 M178.773 89.801 C 179.078 90.168,178.890 90.880,178.443 91.051 C 177.992 91.224,177.311 90.815,177.311 90.371 C 177.311 89.581,178.278 89.204,178.773 89.801 M175.152 89.942 C 175.474 90.264,175.250 90.756,174.780 90.756 C 174.317 90.756,174.079 90.429,174.239 90.011 C 174.379 89.647,174.824 89.614,175.152 89.942 M210.304 95.017 C 212.122 96.450,211.361 99.135,209.133 99.153 C 206.979 99.170,206.020 96.502,207.704 95.178 C 208.321 94.692,209.777 94.602,210.304 95.017 M204.098 95.465 C 205.688 97.055,204.063 99.722,202.023 98.870 C 200.584 98.268,200.194 96.769,201.174 95.604 C 201.896 94.747,203.312 94.679,204.098 95.465 M204.098 102.188 C 204.810 102.901,204.959 103.679,204.546 104.544 C 203.650 106.424,200.630 105.780,200.630 103.709 C 200.630 101.929,202.861 100.951,204.098 102.188 " stroke="none" fill="#0e3c84" fill-rule="evenodd"></path><path id="path2" d="M0.000 105.042 L 0.000 210.084 200.000 210.084 L 400.000 210.084 400.000 105.042 L 400.000 0.000 200.000 0.000 L 0.000 0.000 0.000 105.042 M243.697 33.987 C 245.915 34.292,248.515 34.836,248.999 35.097 C 249.200 35.206,249.518 35.294,249.707 35.294 C 250.258 35.294,254.626 37.192,255.834 37.955 C 256.443 38.340,256.996 38.655,257.064 38.655 C 258.225 38.655,266.387 46.918,266.387 48.094 C 266.387 48.218,266.459 48.319,266.547 48.319 C 266.635 48.319,266.800 48.509,266.914 48.740 C 267.029 48.972,267.415 49.752,267.774 50.473 C 269.575 54.100,270.310 56.548,271.108 61.581 C 271.591 64.629,271.592 145.447,271.109 148.503 C 270.225 154.091,269.153 157.372,266.972 161.165 C 265.006 164.584,260.875 168.963,257.623 171.074 C 253.521 173.737,249.397 175.245,243.908 176.091 C 241.263 176.498,158.958 176.494,156.197 176.086 C 151.346 175.370,147.545 174.113,143.864 172.007 C 143.319 171.695,143.430 171.773,141.182 170.136 C 137.262 167.282,133.663 162.887,131.803 158.683 C 131.505 158.009,131.093 157.080,130.886 156.618 C 130.246 155.181,129.363 151.604,128.943 148.739 C 128.596 146.380,128.602 63.777,128.949 61.345 C 129.798 55.386,131.745 50.419,134.902 46.154 C 138.408 41.419,144.261 37.200,149.685 35.499 C 150.147 35.354,150.762 35.156,151.050 35.060 C 152.080 34.715,153.715 34.403,156.408 34.038 C 159.818 33.576,240.363 33.528,243.697 33.987 M201.350 62.202 C 199.960 63.738,202.107 66.257,203.704 64.964 C 204.726 64.137,204.845 63.322,204.078 62.411 C 203.392 61.595,201.996 61.488,201.350 62.202 M208.146 68.395 C 206.528 69.273,206.908 71.728,208.732 72.186 C 209.558 72.393,210.643 71.755,210.927 70.895 C 211.526 69.079,209.779 67.509,208.146 68.395 M202.175 68.423 C 200.859 68.680,200.480 70.676,201.580 71.556 C 203.056 72.737,205.118 71.243,204.401 69.512 C 204.180 68.979,203.004 68.152,202.685 68.306 C 202.653 68.322,202.423 68.374,202.175 68.423 M214.994 74.776 C 213.650 75.351,213.276 77.188,214.263 78.369 C 215.588 79.956,218.277 78.966,218.277 76.891 C 218.277 75.336,216.445 74.156,214.994 74.776 M207.795 75.399 C 205.918 77.153,208.295 80.117,210.255 78.467 C 211.380 77.520,211.304 75.859,210.102 75.149 C 209.225 74.631,208.539 74.705,207.795 75.399 M201.891 75.272 C 200.836 75.805,200.575 77.467,201.430 78.205 C 202.866 79.446,205.119 77.967,204.408 76.251 C 203.975 75.207,202.869 74.777,201.891 75.272 M196.063 75.375 C 195.464 75.469,194.958 76.185,194.958 76.938 C 194.958 78.678,197.695 78.899,198.009 77.183 C 198.226 75.997,197.340 75.174,196.063 75.375 M190.584 75.805 C 189.847 76.371,189.995 77.746,190.823 78.035 C 192.262 78.538,193.290 76.797,192.105 75.865 C 191.422 75.327,191.215 75.319,190.584 75.805 M185.512 76.247 C 184.824 77.531,186.514 78.630,187.309 77.416 C 187.628 76.929,187.628 76.852,187.309 76.366 C 186.878 75.708,185.837 75.639,185.512 76.247 M181.521 76.355 C 180.963 77.028,181.783 78.061,182.511 77.602 C 183.238 77.144,182.979 76.050,182.143 76.050 C 181.940 76.050,181.660 76.188,181.521 76.355 M177.739 76.566 C 177.426 76.943,177.625 77.311,178.141 77.311 C 178.611 77.311,178.836 76.819,178.513 76.496 C 178.201 76.185,178.044 76.199,177.739 76.566 M174.475 76.681 C 174.303 76.958,174.555 77.351,174.804 77.197 C 175.060 77.039,175.058 76.471,174.802 76.471 C 174.694 76.471,174.546 76.565,174.475 76.681 M221.630 81.435 C 220.259 82.286,220.005 83.955,221.061 85.169 C 222.638 86.983,225.420 85.991,225.420 83.613 C 225.420 81.678,223.248 80.430,221.630 81.435 M214.396 81.990 C 213.498 82.889,213.414 83.822,214.135 84.895 C 215.047 86.252,217.022 86.195,217.881 84.786 C 219.284 82.485,216.298 80.089,214.396 81.990 M207.783 82.100 C 206.125 83.758,207.942 86.511,209.930 85.353 C 211.786 84.272,211.364 81.854,209.270 81.574 C 208.530 81.474,208.343 81.540,207.783 82.100 M201.459 82.260 C 200.764 83.001,200.757 84.338,201.446 84.896 C 202.239 85.538,203.423 85.427,204.078 84.648 C 205.542 82.908,203.016 80.603,201.459 82.260 M195.865 82.140 C 194.892 82.541,194.663 83.893,195.444 84.627 C 196.141 85.282,197.123 85.231,197.690 84.510 C 198.706 83.219,197.390 81.510,195.865 82.140 M190.593 82.470 C 189.667 83.118,190.147 84.874,191.250 84.874 C 192.584 84.874,193.128 83.392,192.094 82.578 C 191.431 82.057,191.206 82.041,190.593 82.470 M185.512 82.969 C 184.824 84.253,186.514 85.352,187.309 84.139 C 187.628 83.652,187.628 83.575,187.309 83.088 C 186.878 82.430,185.837 82.362,185.512 82.969 M181.521 83.078 C 181.101 83.584,181.454 84.244,182.145 84.244 C 182.863 84.244,183.068 83.981,182.894 83.286 C 182.746 82.697,181.939 82.574,181.521 83.078 M177.648 83.317 C 177.478 83.759,177.667 84.034,178.141 84.034 C 178.611 84.034,178.836 83.542,178.513 83.219 C 178.178 82.884,177.798 82.927,177.648 83.317 M174.510 83.333 C 174.268 83.575,174.357 83.824,174.685 83.824 C 174.858 83.824,175.000 83.682,175.000 83.508 C 175.000 83.180,174.752 83.092,174.510 83.333 M214.370 88.739 C 212.475 90.634,214.880 93.707,217.108 92.238 C 218.271 91.472,218.580 90.267,217.912 89.104 C 217.160 87.794,215.487 87.622,214.370 88.739 M207.815 88.757 C 206.438 89.916,207.080 91.967,208.884 92.170 C 211.531 92.468,211.958 88.657,209.317 88.302 C 208.629 88.210,208.373 88.288,207.815 88.757 M201.471 88.896 C 201.055 89.242,200.945 89.527,200.945 90.267 C 200.945 91.993,202.958 92.702,204.078 91.370 C 205.505 89.675,203.183 87.472,201.471 88.896 M195.865 88.862 C 195.320 89.087,194.955 89.700,194.965 90.375 C 194.982 91.659,196.630 92.255,197.569 91.316 C 198.800 90.085,197.486 88.193,195.865 88.862 M190.599 89.185 C 189.672 89.841,190.185 91.597,191.304 91.597 C 191.992 91.597,192.647 90.995,192.647 90.364 C 192.647 89.209,191.499 88.548,190.599 89.185 M185.714 89.496 C 185.048 90.162,185.464 91.387,186.356 91.387 C 187.410 91.387,187.837 90.339,187.089 89.591 C 186.464 88.966,186.258 88.952,185.714 89.496 M181.521 89.801 C 181.380 89.970,181.330 90.303,181.408 90.548 C 181.619 91.212,182.850 91.062,182.949 90.360 C 183.061 89.567,182.045 89.169,181.521 89.801 M177.648 90.040 C 177.478 90.482,177.667 90.756,178.141 90.756 C 178.554 90.756,178.777 90.396,178.628 89.968 C 178.497 89.593,177.800 89.644,177.648 90.040 M174.510 90.056 C 174.268 90.298,174.357 90.546,174.685 90.546 C 174.858 90.546,175.000 90.404,175.000 90.231 C 175.000 89.903,174.752 89.814,174.510 90.056 M208.612 94.999 C 207.619 95.367,207.143 96.009,207.143 96.982 C 207.143 98.741,209.090 99.604,210.440 98.443 C 211.970 97.127,210.475 94.310,208.612 94.999 M201.503 95.560 C 200.240 96.655,201.018 98.717,202.699 98.733 C 203.506 98.740,204.622 97.737,204.622 97.004 C 204.622 95.563,202.586 94.621,201.503 95.560 M201.487 102.258 C 200.164 103.340,201.209 105.660,202.898 105.390 C 203.782 105.249,204.619 104.383,204.621 103.608 C 204.624 102.308,202.530 101.406,201.487 102.258 M169.684 125.765 C 169.603 125.845,169.538 130.769,169.538 136.707 C 169.538 150.375,169.360 151.165,166.071 152.076 C 162.287 153.124,159.448 151.328,159.108 147.668 L 158.973 146.218 155.852 146.218 L 152.731 146.218 152.731 147.567 C 152.731 153.887,157.322 157.983,164.403 157.983 C 169.815 157.983,173.883 155.298,175.207 150.850 C 175.617 149.474,175.632 148.953,175.579 137.576 L 175.525 125.735 172.677 125.677 C 171.111 125.645,169.764 125.684,169.684 125.765 M203.711 125.770 C 203.634 125.847,203.571 132.985,203.571 141.632 L 203.571 157.353 206.408 157.353 L 209.244 157.353 209.244 156.210 C 209.244 154.745,209.414 154.666,210.473 155.644 C 213.958 158.860,220.141 158.757,224.036 155.416 C 229.432 150.788,229.632 142.013,224.453 137.168 C 220.555 133.522,214.223 133.232,210.480 136.527 C 209.188 137.665,209.244 137.898,209.244 131.373 L 209.244 125.630 206.548 125.630 C 205.065 125.630,203.789 125.693,203.711 125.770 M186.403 133.742 C 175.194 136.177,173.453 151.980,183.862 156.813 C 192.278 160.722,201.362 154.950,201.363 145.693 C 201.365 137.557,194.411 132.002,186.403 133.742 M235.609 133.711 C 228.663 135.441,227.322 143.605,233.497 146.564 C 234.306 146.952,235.089 147.269,235.239 147.269 C 235.388 147.269,235.674 147.355,235.875 147.459 C 236.075 147.564,236.854 147.817,237.605 148.021 C 240.371 148.774,241.387 149.483,241.387 150.663 C 241.387 153.814,234.629 153.288,233.591 150.056 C 233.506 149.791,228.950 152.331,228.822 152.716 C 228.721 153.017,229.700 154.433,230.598 155.286 C 235.465 159.907,245.351 158.375,246.913 152.757 C 248.276 147.855,246.055 145.105,239.181 143.184 C 236.101 142.324,234.932 141.297,235.492 139.946 C 236.276 138.054,239.666 138.094,241.354 140.016 L 242.014 140.767 243.609 139.907 C 247.176 137.984,247.034 138.253,245.404 136.510 C 242.973 133.911,239.170 132.825,235.609 133.711 M192.171 139.677 C 197.688 142.492,196.673 150.817,190.643 152.215 C 184.160 153.719,179.837 145.572,184.618 140.862 C 186.429 139.078,189.922 138.530,192.171 139.677 M218.723 140.068 C 221.210 141.171,222.479 143.214,222.479 146.113 C 222.479 153.660,211.999 155.345,209.635 148.178 C 207.814 142.659,213.375 137.697,218.723 140.068 " stroke="none" fill="#fbfbfb" fill-rule="evenodd"></path><path id="path3" d="M158.298 33.801 C 157.836 33.871,176.602 33.929,200.000 33.929 C 223.398 33.929,242.117 33.865,241.597 33.787 C 240.424 33.611,159.459 33.624,158.298 33.801 M155.252 34.168 C 153.514 34.421,151.043 35.011,149.580 35.520 C 148.183 36.007,147.848 36.154,147.937 36.243 C 147.990 36.296,148.555 36.156,149.193 35.932 C 150.937 35.319,153.281 34.730,155.033 34.464 C 155.895 34.333,156.643 34.183,156.696 34.130 C 156.800 34.026,156.097 34.044,155.252 34.168 M244.643 34.346 C 248.695 35.155,251.245 35.936,253.782 37.147 C 261.905 41.023,268.396 49.169,270.135 57.668 C 271.187 62.809,271.113 59.271,271.113 104.937 C 271.113 144.960,271.093 147.279,270.728 149.370 C 269.336 157.332,266.607 162.724,261.529 167.543 C 260.063 168.934,257.516 171.008,257.273 171.008 C 257.212 171.008,256.813 171.245,256.387 171.534 C 253.820 173.276,249.671 174.766,244.836 175.681 L 242.332 176.155 200.105 176.155 L 157.878 176.155 155.153 175.669 C 151.048 174.936,146.632 173.407,144.223 171.884 C 143.761 171.592,143.156 171.235,142.880 171.090 C 140.691 169.947,134.034 163.309,134.034 162.270 C 134.034 162.184,133.900 161.964,133.737 161.781 C 133.574 161.599,132.957 160.504,132.365 159.349 C 131.773 158.193,131.352 157.484,131.428 157.773 C 132.317 161.134,137.040 167.120,141.182 170.136 C 143.430 171.773,143.319 171.695,143.864 172.007 C 147.545 174.113,151.346 175.370,156.197 176.086 C 158.958 176.494,241.263 176.498,243.908 176.091 C 249.397 175.245,253.521 173.737,257.623 171.074 C 260.875 168.963,265.006 164.584,266.972 161.165 C 269.153 157.372,270.225 154.091,271.109 148.503 C 271.592 145.447,271.591 64.629,271.108 61.581 C 270.310 56.548,269.575 54.100,267.774 50.473 C 267.415 49.752,267.029 48.972,266.914 48.740 C 266.800 48.509,266.635 48.319,266.547 48.319 C 266.459 48.319,266.387 48.218,266.387 48.094 C 266.387 46.918,258.225 38.655,257.064 38.655 C 256.996 38.655,256.443 38.340,255.834 37.955 C 254.626 37.192,250.258 35.294,249.707 35.294 C 249.518 35.294,249.200 35.207,248.999 35.100 C 248.461 34.813,245.878 34.280,244.433 34.158 L 243.172 34.052 244.643 34.346 M145.682 37.174 C 140.800 39.599,135.871 44.080,133.379 48.360 C 132.489 49.888,131.252 52.540,131.373 52.661 C 131.443 52.732,131.604 52.518,131.730 52.187 C 133.589 47.296,138.615 41.500,143.438 38.684 C 145.598 37.424,146.883 36.765,147.183 36.765 C 147.332 36.765,147.513 36.670,147.584 36.555 C 147.811 36.188,147.395 36.323,145.682 37.174 M130.883 53.490 C 130.430 54.729,130.288 55.174,129.984 56.303 C 129.477 58.184,129.217 59.487,129.103 60.714 C 128.962 62.225,129.218 61.337,129.739 58.508 C 129.951 57.353,130.388 55.657,130.710 54.740 C 131.031 53.823,131.252 53.030,131.199 52.978 C 131.147 52.926,131.004 53.156,130.883 53.490 M128.776 62.934 C 128.432 63.839,128.502 146.884,128.848 147.356 C 129.082 147.677,129.100 147.547,128.970 146.503 C 128.772 144.909,128.769 65.193,128.968 63.603 C 129.134 62.277,129.087 62.116,128.776 62.934 M169.276 136.817 C 169.197 150.408,169.120 150.786,166.235 151.769 C 162.589 153.011,159.900 151.375,159.358 147.584 L 159.118 145.903 155.872 145.903 L 152.626 145.903 152.610 147.584 L 152.595 149.265 152.672 147.742 L 152.749 146.218 155.861 146.218 L 158.973 146.218 159.108 147.668 C 159.631 153.292,167.375 154.272,169.231 148.950 C 169.332 148.661,169.466 143.319,169.528 137.080 L 169.643 125.735 172.584 125.735 L 175.525 125.735 175.633 137.710 L 175.741 149.685 175.790 137.553 L 175.840 125.420 172.591 125.420 L 169.342 125.420 169.276 136.817 M203.361 141.497 L 203.361 157.574 206.453 157.516 L 209.545 157.458 209.484 156.460 C 209.410 155.270,209.627 155.201,210.640 156.091 C 213.329 158.453,218.390 158.903,221.941 157.097 C 232.900 151.523,229.188 134.034,217.045 134.034 C 214.285 134.034,210.084 135.582,210.084 136.599 C 210.084 136.690,209.939 136.765,209.763 136.765 C 209.482 136.765,209.443 136.077,209.454 131.355 C 209.461 128.380,209.464 125.827,209.460 125.683 C 209.455 125.485,208.701 125.420,206.408 125.420 L 203.361 125.420 203.361 141.497 M209.244 131.373 C 209.244 137.898,209.188 137.665,210.480 136.527 C 214.223 133.232,220.555 133.522,224.453 137.168 C 229.632 142.013,229.432 150.788,224.036 155.416 C 220.141 158.757,213.958 158.860,210.473 155.644 C 209.414 154.666,209.244 154.745,209.244 156.210 L 209.244 157.353 206.408 157.353 L 203.571 157.353 203.571 141.632 C 203.571 132.985,203.634 125.847,203.711 125.770 C 203.789 125.693,205.065 125.630,206.548 125.630 L 209.244 125.630 209.244 131.373 M186.765 133.393 C 179.747 134.719,175.239 141.911,177.065 148.867 C 180.692 162.680,201.034 160.564,201.624 146.313 C 201.967 138.029,194.872 131.860,186.765 133.393 M235.751 133.404 C 228.492 134.944,226.976 143.795,233.453 146.823 C 235.065 147.577,236.056 147.862,235.838 147.510 C 235.756 147.377,235.527 147.269,235.328 147.269 C 233.403 147.269,230.275 144.523,229.834 142.445 C 228.100 134.276,239.315 130.001,245.404 136.510 C 247.034 138.253,247.176 137.984,243.609 139.907 L 242.014 140.767 241.354 140.016 C 239.666 138.094,236.276 138.054,235.492 139.946 C 234.932 141.297,236.101 142.324,239.181 143.184 C 246.055 145.105,248.276 147.855,246.913 152.757 C 245.351 158.375,235.465 159.907,230.598 155.286 C 229.700 154.433,228.721 153.017,228.822 152.716 C 228.950 152.331,233.506 149.791,233.591 150.056 C 234.629 153.288,241.387 153.814,241.387 150.663 C 241.387 149.791,241.112 149.444,239.962 148.861 C 238.994 148.371,236.576 147.645,236.278 147.755 C 236.141 147.806,236.313 147.915,236.660 147.998 C 239.557 148.692,241.176 149.632,241.176 150.620 C 241.176 153.601,235.507 153.055,233.708 149.901 C 233.506 149.547,233.445 149.541,232.973 149.835 C 232.690 150.011,231.536 150.691,230.409 151.346 L 228.360 152.535 228.759 153.316 C 232.227 160.097,245.138 159.775,247.149 152.856 C 248.529 148.108,246.258 145.015,240.033 143.165 C 236.158 142.013,235.636 141.695,235.669 140.505 C 235.731 138.337,240.807 138.389,241.498 140.565 C 241.690 141.170,242.013 141.077,244.531 139.691 C 247.161 138.243,247.170 138.224,245.956 136.739 C 243.699 133.979,239.504 132.608,235.751 133.404 M191.829 133.723 C 203.214 136.118,205.042 151.918,194.500 156.813 C 183.963 161.706,173.225 150.927,178.086 140.336 C 180.395 135.304,186.159 132.530,191.829 133.723 M187.500 139.206 C 181.787 140.682,180.864 149.002,186.116 151.670 C 193.083 155.207,199.236 146.028,193.538 140.596 C 192.331 139.445,189.288 138.744,187.500 139.206 M191.984 139.899 C 198.211 143.076,195.763 152.425,188.797 152.068 C 181.879 151.714,180.647 141.743,187.253 139.574 C 188.477 139.173,190.883 139.338,191.984 139.899 M214.138 139.687 C 209.742 140.812,207.853 146.193,210.498 150.053 C 213.179 153.965,219.900 153.376,221.947 149.049 C 224.368 143.933,219.649 138.275,214.138 139.687 M217.920 140.016 C 223.414 141.683,223.863 149.585,218.596 151.912 C 215.284 153.374,211.034 151.705,209.978 148.526 C 208.196 143.162,212.630 138.411,217.920 140.016 M129.103 149.370 C 129.268 151.141,130.187 154.962,130.801 156.432 C 131.371 157.796,131.307 157.047,130.708 155.344 C 130.386 154.427,129.952 152.731,129.744 151.576 C 129.244 148.797,128.957 147.809,129.103 149.370 M152.830 150.347 C 154.369 160.607,174.022 160.762,175.504 150.525 C 175.607 149.808,175.567 149.861,175.231 150.887 C 172.043 160.604,155.189 160.339,153.154 150.541 C 152.860 149.123,152.625 148.983,152.830 150.347 " stroke="none" fill="#f8a9cf" fill-rule="evenodd"></path><path id="path4" d="M201.644 61.693 C 201.335 61.891,200.981 62.276,200.856 62.549 C 199.725 65.031,203.235 66.798,204.528 64.398 C 205.466 62.655,203.307 60.630,201.644 61.693 M203.468 61.884 C 205.244 62.727,204.601 65.336,202.617 65.336 C 200.693 65.336,200.296 62.068,202.175 61.700 C 202.423 61.652,202.659 61.599,202.699 61.583 C 202.740 61.567,203.085 61.703,203.468 61.884 M208.929 67.998 C 211.302 68.521,211.955 70.815,210.051 71.940 C 208.015 73.142,206.053 70.304,207.795 68.677 C 208.154 68.342,208.339 68.067,208.205 68.067 C 207.829 68.067,206.937 69.129,206.899 69.621 C 206.711 72.126,208.880 73.388,210.594 71.771 C 212.120 70.332,211.067 67.777,208.992 67.882 C 208.569 67.903,208.561 67.917,208.929 67.998 M201.786 68.301 C 199.587 69.565,200.913 72.906,203.300 72.116 C 204.141 71.837,204.895 70.650,204.737 69.853 C 204.483 68.578,202.822 67.704,201.786 68.301 M203.437 68.567 C 204.841 69.153,204.910 71.052,203.552 71.754 C 202.675 72.207,202.138 72.128,201.454 71.445 C 199.970 69.961,201.491 67.753,203.437 68.567 M214.656 74.699 C 213.052 75.569,213.079 78.255,214.699 79.093 C 216.452 80.000,218.473 78.821,218.473 76.891 C 218.473 74.959,216.386 73.760,214.656 74.699 M208.034 74.858 C 206.295 75.824,206.552 78.431,208.445 79.020 C 209.920 79.479,211.345 78.409,211.345 76.841 C 211.345 75.189,209.465 74.063,208.034 74.858 M217.700 75.451 C 218.488 76.390,218.477 77.402,217.670 78.369 C 216.341 79.961,213.655 78.988,213.655 76.916 C 213.655 74.764,216.316 73.800,217.700 75.451 M201.771 74.993 C 201.163 75.238,200.630 76.126,200.630 76.891 C 200.630 78.957,203.326 79.672,204.411 77.894 C 205.474 76.150,203.708 74.209,201.771 74.993 M210.054 75.089 C 211.297 75.732,211.469 77.229,210.420 78.277 C 209.046 79.651,207.143 78.783,207.143 76.783 C 207.143 75.271,208.677 74.378,210.054 75.089 M195.362 75.614 C 194.240 76.736,194.997 78.782,196.534 78.782 C 198.107 78.782,198.887 76.565,197.673 75.544 C 196.826 74.831,196.124 74.852,195.362 75.614 M203.428 75.235 C 204.037 75.546,204.611 76.275,204.617 76.744 C 204.638 78.411,202.336 79.342,201.294 78.087 C 200.073 76.616,201.749 74.376,203.428 75.235 M190.341 75.803 C 189.594 76.550,189.545 77.049,190.141 77.808 C 191.006 78.907,192.857 78.298,192.857 76.914 C 192.857 75.457,191.352 74.792,190.341 75.803 M197.761 75.897 C 198.459 76.724,197.941 78.126,196.826 78.426 C 196.213 78.591,195.192 78.004,195.040 77.400 C 194.603 75.659,196.620 74.546,197.761 75.897 M192.094 75.856 C 193.464 76.934,192.087 78.766,190.532 77.934 C 189.927 77.610,189.970 76.211,190.599 75.772 C 191.231 75.331,191.441 75.343,192.094 75.856 M185.432 76.014 C 184.725 76.795,185.280 78.154,186.304 78.148 C 186.987 78.144,187.256 77.981,187.574 77.377 C 187.975 76.616,187.843 76.527,187.397 77.258 C 186.933 78.020,186.183 78.170,185.624 77.611 C 184.591 76.578,186.133 75.204,187.221 76.188 C 187.432 76.379,187.605 76.445,187.605 76.335 C 187.605 75.604,186.016 75.369,185.432 76.014 M181.423 76.170 C 180.785 76.808,181.247 77.941,182.143 77.941 C 183.084 77.941,183.582 76.483,182.787 76.058 C 182.217 75.753,181.806 75.787,181.423 76.170 M177.529 76.355 C 176.971 77.028,177.791 78.061,178.519 77.602 C 179.246 77.144,178.987 76.050,178.151 76.050 C 177.948 76.050,177.669 76.188,177.529 76.355 M182.765 76.355 C 183.323 77.028,182.503 78.061,181.775 77.602 C 181.048 77.144,181.307 76.050,182.143 76.050 C 182.346 76.050,182.625 76.188,182.765 76.355 M174.235 76.576 C 174.057 77.042,174.698 77.697,175.018 77.377 C 175.345 77.050,175.170 76.384,174.734 76.300 C 174.533 76.261,174.309 76.386,174.235 76.576 M178.564 76.566 C 178.879 76.946,178.676 77.311,178.151 77.311 C 177.934 77.311,177.695 77.212,177.620 77.092 C 177.481 76.866,177.868 76.261,178.151 76.261 C 178.239 76.261,178.424 76.398,178.564 76.566 M175.000 76.891 C 175.000 77.334,174.694 77.456,174.475 77.101 C 174.322 76.853,174.520 76.471,174.802 76.471 C 174.911 76.471,175.000 76.660,175.000 76.891 M221.491 81.294 C 219.120 82.740,220.174 86.331,222.972 86.341 C 224.311 86.347,225.660 85.205,225.614 84.106 C 225.605 83.871,225.501 83.985,225.352 84.396 C 224.366 87.104,220.378 86.452,220.378 83.583 C 220.378 82.245,221.319 81.311,222.899 81.078 L 223.845 80.938 223.004 80.911 C 222.498 80.895,221.896 81.047,221.491 81.294 M214.811 81.291 C 213.048 82.013,213.051 85.084,214.816 85.888 C 217.139 86.947,219.399 84.375,218.066 82.190 C 217.459 81.194,216.019 80.797,214.811 81.291 M224.418 81.566 C 224.733 81.826,225.131 82.369,225.302 82.773 C 225.547 83.351,225.616 83.409,225.622 83.043 C 225.631 82.545,224.486 81.092,224.085 81.093 C 223.953 81.094,224.102 81.307,224.418 81.566 M207.585 81.912 C 206.391 83.027,206.967 85.742,208.390 85.706 C 208.585 85.701,208.487 85.572,208.146 85.387 C 206.223 84.343,207.151 81.289,209.302 81.578 C 211.310 81.847,211.781 84.230,210.037 85.293 C 209.658 85.524,209.473 85.713,209.625 85.714 C 210.134 85.715,210.707 85.287,211.027 84.668 C 212.209 82.384,209.447 80.173,207.585 81.912 M217.570 82.053 C 218.404 82.937,218.491 83.785,217.856 84.827 C 217.046 86.155,215.262 86.264,214.233 85.048 C 212.318 82.783,215.535 79.895,217.570 82.053 M201.244 82.127 C 200.408 82.963,200.406 83.986,201.239 84.918 C 202.386 86.202,204.313 85.651,204.749 83.915 C 205.218 82.046,202.640 80.731,201.244 82.127 M195.588 81.994 C 194.918 82.331,194.567 83.575,194.922 84.354 C 195.449 85.509,197.268 85.652,198.007 84.595 C 199.086 83.055,197.298 81.132,195.588 81.994 M204.012 82.375 C 205.157 83.601,204.361 85.294,202.640 85.294 C 201.023 85.294,200.302 83.655,201.363 82.394 C 202.143 81.467,203.157 81.460,204.012 82.375 M190.347 82.338 C 189.241 83.187,189.909 85.084,191.314 85.084 C 192.245 85.084,192.868 84.456,192.824 83.561 L 192.790 82.878 192.705 83.558 C 192.478 85.389,190.013 85.271,190.167 83.436 C 190.260 82.338,191.105 81.882,192.072 82.408 L 192.752 82.779 192.256 82.356 C 191.640 81.830,191.015 81.824,190.347 82.338 M197.761 82.620 C 198.232 83.177,198.112 84.352,197.541 84.785 C 196.572 85.519,194.958 84.844,194.958 83.705 C 194.958 82.101,196.741 81.411,197.761 82.620 M185.414 82.683 C 184.643 83.454,185.402 84.965,186.494 84.834 C 187.802 84.677,188.123 82.589,186.868 82.400 C 186.487 82.343,186.482 82.358,186.815 82.564 C 187.821 83.189,187.584 84.664,186.477 84.664 C 185.440 84.664,184.975 83.512,185.714 82.773 C 185.945 82.542,186.047 82.353,185.939 82.353 C 185.832 82.353,185.596 82.502,185.414 82.683 M181.316 82.957 C 180.991 83.565,181.039 83.920,181.504 84.341 C 182.366 85.121,183.665 83.994,183.045 83.003 C 182.719 82.481,181.587 82.451,181.316 82.957 M177.563 83.025 C 176.890 83.698,177.600 84.677,178.473 84.279 C 179.282 83.910,179.039 82.773,178.151 82.773 C 177.966 82.773,177.702 82.887,177.563 83.025 M182.905 83.331 C 183.158 84.337,181.710 84.778,181.397 83.791 C 181.228 83.259,181.645 82.773,182.270 82.773 C 182.631 82.773,182.803 82.924,182.905 83.331 M174.245 83.273 C 174.075 83.716,174.314 84.034,174.817 84.034 C 175.134 84.034,175.223 83.917,175.172 83.563 C 175.094 83.014,174.425 82.804,174.245 83.273 M178.655 83.317 C 178.825 83.762,178.635 84.034,178.151 84.034 C 177.934 84.034,177.703 83.948,177.638 83.842 C 177.437 83.518,177.756 82.983,178.151 82.983 C 178.358 82.983,178.584 83.134,178.655 83.317 M175.000 83.508 C 175.000 83.682,174.858 83.824,174.685 83.824 C 174.357 83.824,174.268 83.575,174.510 83.333 C 174.752 83.092,175.000 83.180,175.000 83.508 M215.021 87.900 C 213.353 88.636,212.895 90.668,214.121 91.894 C 215.379 93.153,216.599 93.149,217.793 91.882 C 219.603 89.964,217.426 86.838,215.021 87.900 M207.704 88.455 C 206.607 89.318,206.558 91.033,207.604 91.914 C 208.722 92.855,210.455 92.523,211.110 91.243 C 212.154 89.200,209.509 87.035,207.704 88.455 M217.077 88.253 C 218.642 88.966,218.609 91.509,217.024 92.328 C 214.984 93.383,212.829 91.119,213.949 89.099 C 214.483 88.134,215.948 87.738,217.077 88.253 M201.244 88.849 C 200.167 89.927,200.575 91.595,202.066 92.213 C 203.401 92.765,205.105 91.241,204.747 89.815 C 204.353 88.245,202.390 87.704,201.244 88.849 M210.440 88.742 C 211.836 89.943,210.900 92.227,209.012 92.227 C 207.830 92.227,207.140 91.511,207.150 90.293 C 207.164 88.443,209.055 87.551,210.440 88.742 M195.605 88.701 C 195.325 88.849,195.051 89.106,194.996 89.273 C 194.932 89.467,195.104 89.411,195.481 89.115 C 197.045 87.884,198.901 89.693,197.674 91.253 C 196.788 92.380,195.229 91.826,194.933 90.280 L 194.803 89.601 194.776 90.293 C 194.737 91.249,195.521 92.017,196.534 92.017 C 198.720 92.017,198.976 88.848,196.815 88.533 C 196.429 88.477,195.885 88.552,195.605 88.701 M204.078 89.092 C 205.522 90.808,203.195 93.035,201.441 91.615 C 200.719 91.030,200.735 89.508,201.471 88.896 C 202.290 88.214,203.410 88.298,204.078 89.092 M190.317 89.049 C 189.707 89.543,189.657 90.752,190.222 91.376 C 190.752 91.962,191.869 91.947,192.429 91.347 C 193.756 89.922,191.829 87.825,190.317 89.049 M185.819 89.117 C 184.625 89.794,185.060 91.641,186.397 91.572 C 186.825 91.550,186.830 91.538,186.450 91.446 C 185.174 91.135,184.911 89.933,185.977 89.283 C 186.690 88.849,186.551 88.702,185.819 89.117 M192.383 89.328 C 192.759 89.640,192.709 90.759,192.299 91.212 C 191.497 92.099,190.126 91.478,190.126 90.228 C 190.126 89.045,191.420 88.529,192.383 89.328 M181.781 89.297 C 181.136 89.547,180.939 90.448,181.415 90.975 C 181.887 91.496,182.396 91.499,182.862 90.984 C 183.600 90.169,182.790 88.905,181.781 89.297 M187.081 89.497 C 187.291 89.729,187.508 89.873,187.564 89.817 C 187.705 89.676,187.181 89.076,186.917 89.076 C 186.797 89.076,186.871 89.265,187.081 89.497 M177.563 89.748 C 177.185 90.126,177.259 90.714,177.716 90.958 C 178.229 91.233,178.728 91.046,178.896 90.517 C 179.145 89.732,178.152 89.159,177.563 89.748 M182.878 90.231 C 182.878 90.785,182.798 90.869,182.213 90.926 C 181.453 91.000,181.063 90.352,181.530 89.790 C 182.004 89.219,182.878 89.505,182.878 90.231 M174.239 90.011 C 174.079 90.429,174.317 90.756,174.780 90.756 C 175.250 90.756,175.474 90.264,175.152 89.942 C 174.824 89.614,174.379 89.647,174.239 90.011 M178.640 90.001 C 178.702 90.163,178.623 90.470,178.465 90.683 C 178.103 91.172,177.414 90.649,177.641 90.058 C 177.805 89.631,178.483 89.592,178.640 90.001 M175.000 90.231 C 175.000 90.404,174.858 90.546,174.685 90.546 C 174.357 90.546,174.268 90.298,174.510 90.056 C 174.752 89.814,175.000 89.903,175.000 90.231 M187.339 90.810 L 186.969 91.492 187.392 90.996 C 187.752 90.574,187.945 90.123,187.763 90.127 C 187.734 90.128,187.543 90.435,187.339 90.810 M207.704 95.178 C 206.020 96.502,206.979 99.170,209.133 99.153 C 211.704 99.133,212.125 94.794,209.559 94.755 C 209.264 94.750,209.359 94.858,209.874 95.116 C 211.861 96.109,211.255 98.950,209.056 98.950 C 206.913 98.950,206.362 96.150,208.298 95.105 C 208.671 94.904,208.790 94.761,208.589 94.756 C 208.403 94.752,208.004 94.941,207.704 95.178 M201.174 95.604 C 200.194 96.769,200.584 98.268,202.023 98.870 C 203.439 99.461,205.119 98.022,204.747 96.538 C 204.337 94.907,202.225 94.355,201.174 95.604 M204.078 95.814 C 205.524 97.533,203.267 99.707,201.471 98.327 C 200.730 97.758,200.719 96.240,201.450 95.606 C 202.240 94.921,203.404 95.013,204.078 95.814 M201.174 102.327 C 199.692 104.089,201.451 106.308,203.664 105.467 C 204.355 105.204,204.937 104.018,204.747 103.260 C 204.337 101.630,202.225 101.078,201.174 102.327 M203.482 102.014 C 203.722 102.078,204.077 102.399,204.270 102.726 C 205.393 104.626,202.999 106.392,201.429 104.822 C 199.981 103.374,201.387 101.451,203.482 102.014 " stroke="none" fill="#96a9c8" fill-rule="evenodd"></path></g></svg>